<?xml version="1.0" encoding="utf-8"?>
<!-- Generator: Adobe Illustrator 27.0.0, SVG Export Plug-In . SVG Version: 6.00 Build 0)  -->
<svg version="1.1" id="Capa_1" xmlns="http://www.w3.org/2000/svg" xmlns:xlink="http://www.w3.org/1999/xlink" x="0px" y="0px"
	 viewBox="0 0 596 193.9" style="enable-background:new 0 0 596 193.9;" xml:space="preserve">
<style type="text/css">
	.st0{enable-background:new    ;}
	.st1{fill:#FFFFFF;}
</style>
<g class="st0">
	<path class="st1" d="M77.9,105.9H25.6V33h15.9v57h20.1V33h16.2V105.9z"/>
	<path class="st1" d="M144.1,105.5h-15.7V78.3L106.5,56v49.6H90.3V32.8h15.9c3.5,3.5,7.2,7.2,11.1,11c3.9,3.8,7.5,7.4,10.7,10.7v-22
		h16.1V105.5z"/>
	<path class="st1" d="M218.5,105.5h-21.8l-19.8-19.8c-0.7,0.7-1.3,1.3-1.9,1.9c-0.6,0.6-1.2,1.2-1.9,1.8v16.2h-15.9V32.6h16.2v33.7
		L204,35.8l11.2,11.3l-27.1,27.4L218.5,105.5z"/>
	<path class="st1" d="M279.9,105.5h-15.7V78.3L242.4,56v49.6h-16.2V32.8H242c3.5,3.5,7.2,7.2,11.1,11c3.9,3.8,7.5,7.4,10.7,10.7v-22
		h16.1V105.5z"/>
	<path class="st1" d="M367.4,106.2h-15.1l-21.5-20.6l-20.6,20.5h-16.6V33.6h16.1v49.9c1.9-1.7,4-3.7,6.2-5.9
		c2.2-2.3,4.6-4.8,7.2-7.6V33.6H339v37.2c1.9,1.9,3.9,3.9,5.8,5.9c2,2,4.1,4.1,6.3,6.3V33.6h16.2V106.2z"/>
	<path class="st1" d="M434.8,105.5H419V78.3L397.2,56v49.6H381V32.8h15.9c3.5,3.5,7.2,7.2,11.1,11c3.9,3.8,7.5,7.4,10.7,10.7v-22
		h16.1V105.5z"/>
	<path class="st1" d="M501.8,48.9h-36.2V90h35.9v16.1h-51.9V33.1h52.3V48.9z"/>
	<path class="st1" d="M570.5,106.4h-51.9V33.6h51.9V106.4z M554.4,90.5V49.7h-20.3v40.8H554.4z"/>
</g>
<g class="st0">
	<path class="st1" d="M47.7,160.1l0.3,1.2l0.3-1.2l17-47.3h5l-20.1,54h-4.4l-20.1-54h5L47.7,160.1z"/>
	<path class="st1" d="M114.9,116.6H96.4v50.2h-4.6v-50.2H73.4v-3.9h41.6V116.6z"/>
	<path class="st1" d="M160.9,112.7v36.9c0,3.6-0.8,6.8-2.4,9.5c-1.6,2.7-3.8,4.8-6.7,6.2c-2.9,1.4-6.2,2.2-9.9,2.2
		c-5.7,0-10.2-1.6-13.7-4.7c-3.4-3.1-5.2-7.4-5.3-12.9v-37.2h4.5v36.5c0,4.6,1.3,8.1,3.9,10.6c2.6,2.5,6.1,3.8,10.6,3.8
		c4.5,0,8-1.3,10.6-3.8c2.6-2.5,3.9-6,3.9-10.5v-36.6H160.9z"/>
	<path class="st1" d="M173.6,166.8v-54h16c5.8,0,10.2,1.2,13.2,3.6c3,2.4,4.5,5.9,4.5,10.6c0,2.8-0.8,5.2-2.3,7.3
		c-1.5,2.1-3.6,3.5-6.3,4.4c3.1,0.7,5.7,2.2,7.6,4.6c1.9,2.4,2.9,5.2,2.9,8.3c0,4.8-1.5,8.5-4.6,11.2c-3.1,2.7-7.4,4-12.9,4H173.6z
		 M178.1,137h12.5c3.8-0.1,6.8-1,8.8-2.7c2.1-1.7,3.1-4.2,3.1-7.5c0-3.5-1.1-6-3.2-7.7c-2.2-1.6-5.4-2.5-9.8-2.5h-11.4V137z
		 M178.1,140.8v22.1h13.7c3.9,0,7-1,9.3-3c2.3-2,3.4-4.7,3.4-8.3c0-3.3-1.1-6-3.3-7.9c-2.2-1.9-5.2-2.9-9.1-2.9H178.1z"/>
	<path class="st1" d="M250,140.9h-25.3v22h29.1v3.9h-33.6v-54h33.4v3.9h-28.9V137H250V140.9z"/>
	<path class="st1" d="M283.6,144.2h-15.7v22.5h-4.6v-54h17.6c5.8,0,10.3,1.4,13.5,4.2c3.2,2.8,4.9,6.7,4.9,11.7c0,3.5-1,6.5-3,9.2
		c-2,2.6-4.7,4.5-8.2,5.5l13.5,23v0.5h-4.9L283.6,144.2z M267.9,140.4h14c3.8,0,6.9-1.1,9.2-3.3c2.3-2.2,3.5-5,3.5-8.5
		c0-3.8-1.2-6.8-3.6-8.9c-2.4-2.1-5.8-3.2-10.2-3.2h-12.9V140.4z"/>
	<path class="st1" d="M336.2,112.7l19.9,47.7l20-47.7h6.1v54h-4.6v-23.5l0.4-24.1l-20.1,47.6h-3.5l-20-47.5l0.4,23.8v23.7h-4.6v-54
		H336.2z"/>
	<path class="st1" d="M425.7,151.6h-24.5l-5.6,15.2h-4.8l20.4-54h4.3l20.4,54h-4.8L425.7,151.6z M402.6,147.7h21.7l-10.8-29.4
		L402.6,147.7z"/>
	<path class="st1" d="M456.2,139.9l-7.6,7.5v19.3H444v-54h4.6v29.1l27.7-29.1h5.8l-22.6,24l24.4,30h-5.6L456.2,139.9z"/>
	<path class="st1" d="M521.8,140.9h-25.3v22h29.1v3.9h-33.6v-54h33.4v3.9h-28.9V137h25.3V140.9z"/>
	<path class="st1" d="M555.3,144.2h-15.7v22.5H535v-54h17.6c5.8,0,10.3,1.4,13.5,4.2c3.2,2.8,4.9,6.7,4.9,11.7c0,3.5-1,6.5-3,9.2
		c-2,2.6-4.8,4.5-8.2,5.5l13.5,23v0.5h-4.9L555.3,144.2z M539.6,140.4h14c3.8,0,6.9-1.1,9.2-3.3c2.3-2.2,3.5-5,3.5-8.5
		c0-3.8-1.2-6.8-3.6-8.9c-2.4-2.1-5.8-3.2-10.2-3.2h-12.9V140.4z"/>
</g>
</svg>
