<?xml version="1.0" standalone="no"?>
<!DOCTYPE svg PUBLIC "-//W3C//DTD SVG 20010904//EN"
 "http://www.w3.org/TR/2001/REC-SVG-20010904/DTD/svg10.dtd">
<svg version="1.0" xmlns="http://www.w3.org/2000/svg"
 width="128.000000pt" height="128.000000pt" viewBox="0 0 128.000000 128.000000"
 preserveAspectRatio="xMidYMid meet">

<g transform="translate(0.000000,128.000000) scale(0.100000,-0.100000)"
fill="#000000" stroke="none">
<path d="M267 1242 c-20 -21 -37 -43 -37 -49 0 -16 79 -85 90 -78 15 9 12 26
-7 47 -16 17 -7 18 242 18 249 0 258 -1 242 -18 -38 -42 -11 -63 32 -26 56 47
58 61 15 105 -21 21 -44 39 -51 39 -16 0 -17 -32 -1 -48 9 -9 -43 -12 -237
-12 -194 0 -246 3 -237 12 16 16 15 48 -1 48 -7 0 -30 -17 -50 -38z"/>
<path d="M492 1117 c-21 -22 -22 -32 -22 -229 l0 -205 -30 -6 c-16 -4 -39 -16
-50 -27 -18 -18 -20 -33 -20 -157 0 -163 7 -193 65 -277 47 -69 65 -118 65
-179 0 -31 3 -38 18 -35 42 8 21 134 -35 212 -66 92 -73 116 -73 267 0 109 3
139 15 149 32 26 45 5 45 -75 0 -57 3 -75 14 -75 8 0 17 7 20 16 3 9 6 143 6
298 0 206 3 285 12 294 16 16 53 15 67 -1 7 -9 12 -96 13 -248 3 -200 5 -234
18 -234 11 0 16 15 20 55 6 68 14 80 49 80 39 0 49 -16 53 -80 2 -41 7 -55 18
-55 11 0 16 15 20 55 6 68 14 80 50 80 36 0 44 -12 50 -80 4 -40 9 -55 20 -55
8 0 16 9 18 20 6 30 22 45 47 45 43 0 47 -19 43 -182 -4 -168 -4 -169 -91
-302 -28 -43 -32 -58 -32 -115 0 -52 3 -66 15 -66 10 0 16 12 18 35 5 75 14
101 56 162 67 98 76 135 76 309 0 147 0 150 -26 175 -20 21 -33 25 -65 22 -31
-3 -40 0 -45 14 -14 45 -102 76 -132 46 -9 -9 -18 -9 -37 0 -14 7 -44 12 -65
12 l-40 0 0 155 c0 152 -1 156 -25 180 -33 34 -93 34 -123 2z"/>
</g>
</svg>
