<?xml version="1.0" encoding="utf-8"?>
<!-- Generator: Adobe Illustrator 27.0.0, SVG Export Plug-In . SVG Version: 6.00 Build 0)  -->
<svg version="1.1" id="Capa_1" xmlns="http://www.w3.org/2000/svg" xmlns:xlink="http://www.w3.org/1999/xlink" x="0px" y="0px"
	 viewBox="0 0 547.7 136.6" style="enable-background:new 0 0 547.7 136.6;" xml:space="preserve">
<style type="text/css">
	.st0{enable-background:new    ;}
	.st1{fill:#FFFFFF;}
</style>
<g class="st0">
	<path class="st1" d="M52.3,75.8H0V2.9h15.9v57H36v-57h16.2L52.3,75.8L52.3,75.8z"/>
	<path class="st1" d="M118.5,75.4h-15.7V48.2L80.9,25.9v49.6H64.7V2.7h15.9c3.5,3.5,7.2,7.2,11.1,11s7.5,7.4,10.7,10.7v-22h16.1
		V75.4z"/>
	<path class="st1" d="M192.9,75.4h-21.8l-19.8-19.8c-0.7,0.7-1.3,1.3-1.9,1.9c-0.6,0.6-1.2,1.2-1.9,1.8v16.2h-15.9v-73h16.2v33.7
		l30.6-30.5L189.6,17l-27.1,27.4L192.9,75.4z"/>
	<path class="st1" d="M254.3,75.4h-15.7V48.2l-21.8-22.3v49.6h-16.2V2.7h15.8c3.5,3.5,7.2,7.2,11.1,11c3.9,3.8,7.5,7.4,10.7,10.7
		v-22h16.1L254.3,75.4L254.3,75.4z"/>
	<path class="st1" d="M341.8,76.1h-15.1l-21.5-20.6L284.6,76H268V3.5h16.1v49.9c1.9-1.7,4-3.7,6.2-5.9c2.2-2.3,4.6-4.8,7.2-7.6V3.5
		h15.9v37.2c1.9,1.9,3.9,3.9,5.8,5.9c2,2,4.1,4.1,6.3,6.3V3.5h16.2v72.6H341.8z"/>
	<path class="st1" d="M409.2,75.4h-15.8V48.2l-21.8-22.3v49.6h-16.2V2.7h15.9c3.5,3.5,7.2,7.2,11.1,11s7.5,7.4,10.7,10.7v-22h16.1
		L409.2,75.4L409.2,75.4z"/>
	<path class="st1" d="M476.2,18.8H440v41.1h35.9V76H424V3h52.3L476.2,18.8L476.2,18.8z"/>
	<path class="st1" d="M544.9,76.3H493V3.5h51.9V76.3z M528.8,60.4V19.6h-20.3v40.8H528.8z"/>
</g>
<g class="st0">
	<path class="st1" d="M22.1,130l0.3,1.2l0.3-1.2l17-47.3h5l-20.1,54h-4.4l-20.1-54h5L22.1,130z"/>
	<path class="st1" d="M89.3,86.5H70.8v50.2h-4.6V86.5H47.8v-3.9h41.6L89.3,86.5L89.3,86.5z"/>
	<path class="st1" d="M135.3,82.6v36.9c0,3.6-0.8,6.8-2.4,9.5c-1.6,2.7-3.8,4.8-6.7,6.2c-2.9,1.4-6.2,2.2-9.9,2.2
		c-5.7,0-10.2-1.6-13.7-4.7c-3.4-3.1-5.2-7.4-5.3-12.9V82.6h4.5v36.5c0,4.6,1.3,8.1,3.9,10.6c2.6,2.5,6.1,3.8,10.6,3.8
		s8-1.3,10.6-3.8c2.6-2.5,3.9-6,3.9-10.5V82.6L135.3,82.6L135.3,82.6z"/>
	<path class="st1" d="M148,136.7v-54h16c5.8,0,10.2,1.2,13.2,3.6s4.5,5.9,4.5,10.6c0,2.8-0.8,5.2-2.3,7.3s-3.6,3.5-6.3,4.4
		c3.1,0.7,5.7,2.2,7.6,4.6c1.9,2.4,2.9,5.2,2.9,8.3c0,4.8-1.5,8.5-4.6,11.2s-7.4,4-12.9,4H148z M152.5,106.9H165
		c3.8-0.1,6.8-1,8.8-2.7c2.1-1.7,3.1-4.2,3.1-7.5c0-3.5-1.1-6-3.2-7.7c-2.2-1.6-5.4-2.5-9.8-2.5h-11.4L152.5,106.9L152.5,106.9z
		 M152.5,110.7v22.1h13.7c3.9,0,7-1,9.3-3c2.3-2,3.4-4.7,3.4-8.3c0-3.3-1.1-6-3.3-7.9s-5.2-2.9-9.1-2.9L152.5,110.7L152.5,110.7z"/>
	<path class="st1" d="M224.4,110.8h-25.3v22h29.1v3.9h-33.6v-54H228v3.9h-28.9v20.3h25.3V110.8z"/>
	<path class="st1" d="M258,114.1h-15.7v22.5h-4.6v-54h17.6c5.8,0,10.3,1.4,13.5,4.2c3.2,2.8,4.9,6.7,4.9,11.7c0,3.5-1,6.5-3,9.2
		c-2,2.6-4.7,4.5-8.2,5.5l13.5,23v0.5h-4.9L258,114.1z M242.3,110.3h14c3.8,0,6.9-1.1,9.2-3.3c2.3-2.2,3.5-5,3.5-8.5
		c0-3.8-1.2-6.8-3.6-8.9s-5.8-3.2-10.2-3.2h-12.9V110.3z"/>
	<path class="st1" d="M310.6,82.6l19.9,47.7l20-47.7h6.1v54H352v-23.5l0.4-24.1l-20.1,47.6h-3.5l-20-47.5l0.4,23.8v23.7h-4.6v-54
		H310.6z"/>
	<path class="st1" d="M400.1,121.5h-24.5l-5.6,15.2h-4.8l20.4-54h4.3l20.4,54h-4.8L400.1,121.5z M377,117.6h21.7l-10.8-29.4
		L377,117.6z"/>
	<path class="st1" d="M430.6,109.8l-7.6,7.5v19.3h-4.6v-54h4.6v29.1l27.7-29.1h5.8l-22.6,24l24.4,30h-5.6L430.6,109.8z"/>
	<path class="st1" d="M496.2,110.8h-25.3v22H500v3.9h-33.6v-54h33.4v3.9h-28.9v20.3h25.3V110.8z"/>
	<path class="st1" d="M529.7,114.1H514v22.5h-4.6v-54H527c5.8,0,10.3,1.4,13.5,4.2c3.2,2.8,4.9,6.7,4.9,11.7c0,3.5-1,6.5-3,9.2
		c-2,2.6-4.8,4.5-8.2,5.5l13.5,23v0.5h-4.9L529.7,114.1z M514,110.3h14c3.8,0,6.9-1.1,9.2-3.3s3.5-5,3.5-8.5c0-3.8-1.2-6.8-3.6-8.9
		c-2.4-2.1-5.8-3.2-10.2-3.2H514V110.3z"/>
</g>
</svg>
